PathFileType	4	(X/Y/Z)	s11c0101.trc
DataRate	CameraRate	NumFrames	NumMarkers	Units	OrigDataRate	OrigDataStartFrame	OrigNumFrames
200	200	6	48	mm	200	1500	2000
Frame#	Time	racr			lacr			c7			jug			rlel			rdr			llel			ldr			s2			lic			ric			lasi			rasi			rpsi			lpsi			rgt			lgt			rth1			rth2			rth3			rth4			rlfc			rmfc			rsh1			rsh2			rsh3			rsh4			rlmal			rcal			rtoe			rmt5			lth1			lth2			lth4			lth3			llfc			lmfc			llmal			lcal			lmt5			lsh1			lsh2			lsh3			lsh4			ltoe			SBIKE			LBIKE			RBIKE			
		X1	Y1	Z1	X2	Y2	Z2	X3	Y3	Z3	X4	Y4	Z4	X5	Y5	Z5	X6	Y6	Z6	X7	Y7	Z7	X8	Y8	Z8	X9	Y9	Z9	X10	Y10	Z10	X11	Y11	Z11	X12	Y12	Z12	X13	Y13	Z13	X14	Y14	Z14	X15	Y15	Z15	X16	Y16	Z16	X17	Y17	Z17	X18	Y18	Z18	X19	Y19	Z19	X20	Y20	Z20	X21	Y21	Z21	X22	Y22	Z22	X23	Y23	Z23	X24	Y24	Z24	X25	Y25	Z25	X26	Y26	Z26	X27	Y27	Z27	X28	Y28	Z28	X29	Y29	Z29	X30	Y30	Z30	X31	Y31	Z31	X32	Y32	Z32	X33	Y33	Z33	X34	Y34	Z34	X35	Y35	Z35	X36	Y36	Z36	X37	Y37	Z37	X38	Y38	Z38	X39	Y39	Z39	X40	Y40	Z40	X41	Y41	Z41	X42	Y42	Z42	X43	Y43	Z43	X44	Y44	Z44	X45	Y45	Z45	X46	Y46	Z46	X47	Y47	Z47	X48	Y48	Z48	
1500	7.5000	517.156168	1332.271112	-47.144325	541.276939	1337.100952	-390.663564	483.841253	1442.672780	-218.278939	487.757091	1257.254293	-226.895797	523.258396	1056.058686	35.441778	765.596178	938.251108	-61.526735	486.571648	1057.949162	-541.054657	769.654791	929.195112	-479.802278	-85.169388	1215.366076	-273.505504	142.488610	1224.878142	-463.640131	116.497747	1231.794067	-57.445680	170.140766	1156.308084	-433.135322	139.618412	1185.286882	-112.480048	-47.625369	1292.647853	-221.810579	-42.410449	1282.089550	-317.607917	98.304514	1121.467119	-43.020279	37.112879	1085.491124	-469.382973	230.463943	1075.858515	-42.534870	318.239212	1078.748955	-53.634874	394.967689	1037.555242	-62.510952	326.321753	1113.572560	-64.006621	498.792298	1010.645842	-80.568285	511.143686	993.120595	-214.601766	427.018405	879.565128	-73.102408	396.366770	798.682319	-92.012541	330.318238	742.104602	-95.203776	420.057129	786.660284	-120.464674	237.998560	633.028427	-107.930758	178.045032	654.811173	-156.809995	382.459888	453.435052	-154.443838	313.476902	477.808966	-84.141516	99.558017	951.983734	-489.075113	147.290644	881.197482	-485.905476	183.035071	892.432919	-483.492351	153.489904	792.259867	-472.499604	200.491899	661.861776	-444.527828	220.206970	656.518486	-315.783049	81.779909	243.813997	-418.775933	29.554558	196.193163	-381.440510	231.602427	153.715294	-454.923345	162.990038	543.408109	-462.759374	164.540428	458.225146	-447.655083	123.046735	380.668736	-441.524701	195.856393	453.940177	-425.921244	327.535208	184.584470	-389.617985	-215.466735	960.758916	-257.588449	-17.884574	80.882885	-461.113855	-17.783907	81.145691	-62.188092	
1501	7.5050	517.137581	1333.475282	-46.684641	541.443317	1337.675781	-388.664021	484.254457	1441.889575	-217.127398	487.048218	1255.840134	-225.736389	525.130970	1057.921816	36.348771	765.901482	938.541258	-61.580698	488.698668	1060.113479	-542.136057	770.087494	929.254041	-479.810878	-84.915652	1217.589891	-274.471587	143.024802	1226.088534	-463.893346	115.153538	1234.227727	-57.867823	170.370291	1157.103741	-433.642731	138.041268	1187.305006	-112.633751	-47.717996	1295.376351	-222.628892	-41.919572	1284.286411	-318.262556	96.768950	1124.131699	-42.910285	36.125727	1087.196178	-469.796551	229.007955	1078.876868	-42.997678	317.341976	1081.862436	-52.393135	393.553256	1040.527083	-63.143758	324.603447	1117.191980	-63.590017	497.034449	1014.805108	-80.188400	509.221783	996.780625	-215.399437	427.873100	881.048400	-73.713558	399.007843	799.349879	-92.210908	334.128147	741.492115	-95.322170	422.973298	787.801386	-120.738840	243.595301	630.810944	-107.731491	182.546247	650.880183	-156.290611	393.400461	456.193253	-154.649607	323.647286	477.984815	-84.453143	98.484246	953.671143	-490.032513	146.726741	883.146262	-487.603276	182.405876	894.609830	-486.144344	153.788160	794.284238	-473.985750	201.222877	664.075464	-446.729781	223.543956	658.749940	-318.678331	73.854646	248.735885	-418.645108	20.848858	202.379115	-380.972084	221.693324	154.921914	-454.707088	161.791749	546.184457	-464.391528	161.460463	460.944115	-448.788884	118.195496	384.414934	-442.181897	192.782542	456.027467	-427.248693	318.518302	183.525289	-389.751269	-215.453811	960.836143	-257.532761	-17.876552	80.943314	-461.127481	-17.781030	81.189729	-62.185629	
1502	7.5100	517.250289	1334.495660	-46.517429	541.521558	1337.767056	-386.707706	484.847109	1440.847634	-216.231934	486.275661	1254.559302	-224.366423	527.084978	1059.628186	37.181934	766.195861	938.685822	-61.673341	490.795239	1062.058892	-543.158889	770.345497	929.286147	-479.810331	-84.812210	1219.808598	-275.229037	143.227608	1227.058078	-463.944083	113.887771	1236.769312	-58.285851	170.383349	1157.865097	-434.082500	136.481360	1189.377018	-112.839646	-47.800131	1298.013282	-223.146040	-41.591753	1286.591047	-318.717354	94.968858	1126.890139	-42.837898	35.142993	1088.836742	-470.186225	227.386494	1081.456836	-43.502751	315.362823	1084.156817	-53.559980	391.888417	1042.650798	-63.975177	323.585196	1118.663074	-64.633756	495.583108	1017.873958	-79.069317	507.539640	999.283352	-215.930299	428.686911	881.567510	-74.355953	401.458573	799.049433	-92.541424	337.879868	739.877784	-95.393203	425.609827	788.071172	-121.261288	249.011932	627.729984	-107.535836	186.877975	645.939968	-155.773361	404.053491	458.154744	-154.894175	333.734630	477.558460	-84.502401	97.606421	955.255838	-490.919515	146.658204	885.340926	-489.189815	182.222294	897.039156	-488.617134	154.921067	796.428128	-475.468571	203.117346	666.318414	-448.737833	227.534088	661.229875	-321.470274	66.063955	254.384227	-418.417516	12.561594	209.435334	-380.203855	211.888732	156.824868	-454.618087	161.425269	549.057135	-465.747943	159.014524	464.107860	-449.826247	113.851120	388.718689	-442.661139	190.364274	458.468652	-428.496345	309.653045	182.953107	-390.160159	-215.452972	960.883291	-257.507767	-17.852929	81.013486	-461.088220	-17.755976	81.218874	-62.168727	
1503	7.5150	517.432236	1335.221678	-46.634790	541.616778	1337.361638	-384.748205	485.496599	1439.491490	-215.470508	485.351630	1252.989408	-223.165702	528.770079	1061.201786	37.891512	766.548675	938.796175	-61.757734	492.598974	1063.705200	-544.326186	770.488938	929.250428	-479.932730	-84.802923	1222.205663	-275.745678	143.324533	1228.127232	-464.265741	112.747449	1239.018719	-58.755563	170.209437	1158.642001	-434.475804	135.090590	1191.132555	-113.505138	-47.867153	1300.775106	-223.557532	-41.441216	1288.950044	-319.059676	93.101638	1129.397413	-42.445128	34.124684	1090.374835	-470.557060	225.575997	1083.632362	-44.014016	313.525647	1085.936509	-54.297621	389.968743	1044.201509	-64.943438	321.393446	1121.304209	-65.373459	492.642057	1019.555064	-79.522815	505.449925	1000.506751	-216.774744	429.473249	880.940273	-74.993806	403.622625	798.132141	-92.895815	341.312601	737.451124	-95.349224	427.940070	787.228580	-121.753202	254.104375	623.648990	-107.315611	190.984784	639.927262	-155.200245	414.495434	459.510744	-154.856803	343.634641	476.247262	-84.369717	97.399287	957.007102	-491.331250	147.132545	887.669827	-490.533229	182.525429	899.655824	-490.777749	156.724373	798.929373	-477.020888	206.085997	668.814822	-450.718089	232.118196	664.017416	-324.044609	59.056324	260.682448	-417.704818	4.742409	217.433159	-379.337488	202.242124	159.232786	-454.434669	161.636410	552.512935	-467.072463	157.173187	467.591930	-450.681894	110.105998	393.429931	-443.059429	188.445758	461.322518	-429.500744	300.997361	182.875546	-390.634882	-215.437763	960.918897	-257.433819	-17.862840	81.044048	-461.082173	-17.762635	81.273014	-62.193545	
1504	7.5200	517.650904	1335.768193	-46.971856	541.689148	1336.391489	-382.832020	486.242978	1437.960064	-214.909210	484.277690	1251.474636	-221.878227	530.329815	1062.502551	38.632458	766.892528	938.835734	-61.806355	494.110282	1064.891761	-545.502014	770.528546	929.161578	-480.114401	-84.947576	1224.738270	-276.114519	143.302412	1229.228939	-464.699980	111.704354	1241.041029	-59.068609	170.050585	1159.506379	-435.255677	133.815062	1192.764507	-113.981460	-47.946664	1303.418292	-223.964943	-41.425659	1291.285802	-319.380568	91.245319	1131.742392	-42.307245	33.073290	1091.748040	-470.987495	223.606073	1085.419187	-44.499832	311.523525	1087.250534	-55.026449	387.820925	1044.926380	-65.819864	319.950382	1121.497147	-65.829316	490.440309	1019.738925	-80.906011	502.979916	1000.366728	-217.708957	430.216427	879.097842	-75.525819	405.654791	795.729773	-93.207536	344.414640	734.094654	-95.254281	429.977849	785.436315	-122.286359	259.031913	619.001265	-106.761782	194.625059	632.640290	-154.399537	424.549802	460.797706	-154.779069	353.104713	474.592766	-84.128485	97.442074	958.757166	-491.771059	148.209060	890.080424	-491.732756	183.352200	902.584822	-492.579037	159.221715	801.474222	-478.684772	209.920013	671.512485	-452.641283	237.248246	667.001172	-326.385701	52.473449	267.782603	-417.129670	-2.629011	226.156771	-378.512900	192.979889	162.426610	-454.174313	162.566011	556.212230	-468.372963	155.916469	471.551865	-451.434721	106.946602	398.729959	-443.251622	187.132006	464.518330	-430.395596	292.565679	183.110961	-390.791077	-215.439939	960.920175	-257.383976	-17.854499	81.043075	-461.061962	-17.757252	81.274184	-62.184221	
1505	7.5250	517.862724	1335.921520	-47.478512	541.776766	1334.938123	-380.967238	486.861672	1436.377665	-214.469192	483.170813	1249.951391	-220.638458	531.768792	1063.659112	39.328931	767.176956	938.799793	-61.905499	496.666101	1066.745415	-548.208704	770.965909	929.771749	-481.587925	-84.808293	1226.920262	-276.965917	143.082562	1230.219562	-465.270023	110.743143	1242.958280	-59.538955	169.498673	1160.302058	-435.791152	132.358534	1194.211302	-113.603767	-48.029095	1306.055629	-224.437118	-41.515102	1293.652438	-319.703136	89.359399	1133.785220	-42.312396	31.999258	1093.064392	-471.477072	221.637290	1086.873128	-44.442721	309.443389	1087.787028	-55.807358	385.492268	1044.801619	-66.702430	317.902842	1122.408919	-66.905731	488.538176	1018.226219	-83.111674	500.199363	999.037134	-218.777686	430.845409	876.043704	-75.983179	407.511174	792.408275	-93.434935	347.244341	729.723501	-94.999594	431.676219	782.540472	-122.819983	263.325760	613.058144	-106.390775	197.925932	624.447087	-153.644411	434.273983	461.560875	-154.554265	362.232704	472.139744	-83.854130	97.874239	960.509894	-492.131958	149.772560	892.653406	-492.737077	184.645215	905.745892	-494.019988	162.373035	804.165124	-480.383869	214.519975	674.489316	-454.447701	242.961736	670.156408	-328.582019	46.446750	275.518686	-416.570975	-9.473502	235.711256	-377.603324	183.847034	166.142367	-453.882732	164.050398	560.402587	-469.596421	155.228582	476.048322	-452.164067	104.402917	404.581329	-443.440615	186.381949	468.457547	-431.291566	284.322783	183.764060	-391.059945	-215.380178	960.866865	-257.137316	-17.867530	81.059499	-461.064897	-17.754472	81.297861	-62.177230	
